<?xml version="1.0" standalone="no"?>
<!DOCTYPE svg PUBLIC "-//W3C//DTD SVG 20010904//EN"
 "http://www.w3.org/TR/2001/REC-SVG-20010904/DTD/svg10.dtd">
<svg version="1.0" xmlns="http://www.w3.org/2000/svg"
 width="512.000000pt" height="512.000000pt" viewBox="0 0 512.000000 512.000000"
 preserveAspectRatio="xMidYMid meet">

<g transform="translate(0.000000,512.000000) scale(0.100000,-0.100000)"
fill="#000000" stroke="none">
<path d="M599 5108 c-34 -11 -49 -46 -49 -114 0 -45 4 -59 25 -79 29 -30 64
-32 93 -5 19 18 22 32 22 94 0 57 -4 76 -17 88 -26 22 -45 26 -74 16z"/>
<path d="M1039 5106 c-47 -23 -63 -102 -35 -171 17 -39 54 -54 92 -36 41 18
57 100 33 169 -13 38 -55 56 -90 38z"/>
<path d="M126 5088 c-11 -15 -16 -45 -16 -89 0 -61 3 -70 26 -88 15 -12 34
-21 44 -21 10 0 29 9 44 21 23 18 26 27 26 88 0 86 -16 111 -70 111 -29 0 -43
-6 -54 -22z"/>
<path d="M1807 3062 l-337 -337 80 -80 80 -80 338 338 337 337 -80 80 -80 80
-338 -338z"/>
</g>
</svg>
